<?xml version="1.0" standalone="no"?>
<!DOCTYPE svg PUBLIC "-//W3C//DTD SVG 20010904//EN"
 "http://www.w3.org/TR/2001/REC-SVG-20010904/DTD/svg10.dtd">
<svg version="1.0" xmlns="http://www.w3.org/2000/svg"
 width="900.000000pt" height="520.000000pt" viewBox="0 0 900.000000 520.000000"
 preserveAspectRatio="xMidYMid meet">

<g transform="translate(0.000000,520.000000) scale(0.100000,-0.100000)"
fill="#000000" stroke="none">
<path d="M2664 4316 c-17 -8 -34 -21 -38 -31 -3 -9 -6 -71 -6 -137 0 -112 -1
-120 -20 -125 -55 -14 -161 -75 -210 -120 -101 -93 -160 -227 -160 -364 l0
-66 -74 -5 c-89 -6 -148 -40 -186 -108 -24 -43 -25 -53 -28 -246 -4 -213 2
-257 40 -315 34 -50 117 -89 190 -89 l58 0 0 -95 0 -95 -35 0 c-82 0 -138 -21
-186 -69 -86 -85 -93 -213 -17 -306 42 -50 82 -69 163 -75 l70 -5 5 -360 c5
-300 8 -367 22 -401 69 -174 180 -281 343 -331 57 -17 147 -18 2050 -18 1918
0 1992 1 2045 19 172 58 281 161 343 324 l22 57 3 1110 c3 1226 5 1179 -60
1308 -36 72 -127 163 -204 204 -127 67 -21 63 -1802 63 l-1612 0 0 119 c0 102
-3 122 -19 142 l-19 24 -324 2 c-257 2 -329 0 -354 -11z m574 -202 l3 -61 -32
-7 c-40 -8 -386 -8 -416 0 -21 6 -23 13 -23 63 0 32 3 61 7 65 4 3 108 5 232
4 l226 -3 3 -61z m3444 -242 c100 -40 170 -110 210 -210 l23 -57 0 -1110 0
-1110 -23 -56 c-40 -100 -123 -177 -226 -212 -46 -16 -209 -17 -2021 -17
-1697 0 -1979 2 -2020 15 -70 21 -149 79 -190 140 -68 104 -66 52 -63 1266 l3
1094 23 58 c44 108 161 200 276 217 28 4 929 7 2001 6 l1950 -1 57 -23z
m-4462 -783 l0 -229 -46 2 c-82 3 -85 11 -84 234 1 166 4 194 18 207 20 18 47
24 85 19 l27 -4 0 -229z m-2 -796 l-3 -78 -37 -3 c-30 -3 -43 2 -64 23 -53 53
-11 135 69 135 l38 0 -3 -77z"/>
<path d="M6414 3748 c-49 -13 -53 -30 -54 -214 0 -234 -8 -227 244 -222 208 4
196 -10 196 224 0 161 -2 176 -20 194 -11 11 -26 20 -32 20 -7 0 -79 1 -161 3
-81 1 -159 -1 -173 -5z m246 -213 l0 -75 -80 0 -80 0 0 75 0 75 80 0 80 0 0
-75z"/>
<path d="M5180 3635 c-402 -58 -757 -339 -906 -716 -83 -213 -102 -479 -48
-694 102 -410 419 -731 833 -843 88 -24 113 -26 286 -26 175 0 198 2 290 27
545 147 907 662 854 1217 -27 289 -141 525 -351 726 -257 246 -610 360 -958
309z m320 -155 c4 -7 16 -9 27 -6 20 7 164 -34 216 -61 15 -7 25 -18 22 -22
-3 -5 3 -7 12 -5 22 6 144 -66 136 -79 -3 -6 -1 -7 5 -4 5 4 30 -9 54 -29 53
-44 69 -60 48 -49 -8 5 -13 6 -10 2 3 -3 10 -6 15 -7 18 -2 74 -63 68 -73 -3
-6 -2 -7 4 -4 9 5 79 -79 77 -93 0 -3 8 -14 18 -24 17 -19 22 -31 19 -49 -1
-5 2 -6 7 -3 9 5 68 -125 76 -167 2 -14 9 -34 14 -44 18 -34 35 -167 35 -268
0 -110 -19 -245 -35 -245 -6 0 -8 -7 -5 -15 8 -20 -23 -106 -35 -99 -6 4 -8
-1 -4 -14 5 -14 0 -27 -16 -43 -13 -12 -17 -19 -11 -15 9 5 11 2 7 -8 -3 -9
-11 -13 -17 -9 -6 4 -8 0 -5 -9 7 -18 -25 -71 -37 -61 -4 5 -5 2 -1 -5 11 -19
-62 -115 -83 -107 -12 5 -13 3 -4 -6 9 -9 4 -19 -19 -45 -17 -19 -37 -34 -44
-34 -7 0 -16 -5 -20 -12 -5 -7 -2 -9 7 -4 8 4 5 0 -6 -8 -11 -9 -33 -27 -48
-41 -15 -14 -33 -23 -39 -19 -6 4 -8 3 -5 -3 8 -13 -52 -51 -75 -47 -10 1 -15
-3 -12 -11 6 -15 -23 -28 -39 -18 -7 3 -8 2 -4 -2 9 -10 -61 -47 -74 -39 -5 3
-9 0 -9 -5 0 -6 -9 -11 -19 -11 -11 0 -23 -5 -26 -10 -4 -6 -16 -8 -27 -4 -14
4 -18 3 -13 -6 5 -8 1 -11 -11 -9 -11 1 -30 -2 -44 -8 -63 -26 -278 -33 -391
-13 -85 15 -200 51 -194 60 3 5 -5 6 -17 2 -16 -4 -19 -2 -13 8 5 9 4 11 -4 6
-6 -4 -24 0 -39 10 -26 18 -31 20 -50 23 -5 0 -18 10 -30 21 -12 11 -25 20
-29 20 -5 0 -8 4 -8 9 0 5 -4 13 -9 18 -5 5 -6 3 -2 -4 12 -22 -4 -14 -52 25
-93 75 -143 126 -137 141 3 8 -4 23 -15 33 -11 10 -20 14 -20 8 0 -6 7 -13 15
-16 8 -4 15 -11 15 -17 0 -5 -9 -2 -20 8 -11 10 -20 24 -20 30 0 7 -7 15 -15
19 -8 3 -12 12 -9 20 3 8 0 17 -7 22 -8 4 -10 3 -5 -4 4 -7 5 -12 2 -12 -8 0
-57 86 -55 96 3 21 -2 35 -11 29 -10 -6 -14 7 -11 34 2 8 -2 10 -10 5 -9 -5
-10 -2 -6 9 3 10 2 17 -2 17 -12 0 -32 60 -25 71 3 5 0 9 -6 9 -7 0 -10 6 -7
14 3 7 1 18 -4 23 -15 15 -31 150 -32 263 -1 94 22 242 36 233 6 -3 7 -1 3 6
-4 7 -4 20 0 29 4 9 8 23 10 31 18 89 179 361 205 346 5 -4 8 -2 7 3 -4 13 51
64 62 57 5 -3 12 0 16 6 5 8 3 9 -6 4 -8 -5 -11 -3 -8 6 5 14 107 98 120 99 3
0 30 16 60 35 29 20 61 34 71 31 10 -2 14 0 10 7 -4 6 2 8 15 5 12 -4 20 -3
17 2 -10 16 129 61 250 81 74 12 276 4 285 -11z"/>
<path d="M5315 3189 c-116 -9 -141 -14 -195 -34 -25 -9 -53 -17 -62 -18 -9 -1
-15 -3 -12 -6 4 -4 -56 -33 -63 -32 -2 1 -12 -7 -22 -16 -41 -37 -52 -44 -61
-38 -6 4 -9 1 -8 -7 2 -7 -4 -12 -12 -10 -8 2 -12 0 -7 -4 9 -10 -33 -55 -45
-48 -5 3 -7 0 -6 -7 2 -7 -4 -13 -12 -14 -8 -1 -14 -6 -12 -13 1 -7 -11 -30
-27 -52 -15 -21 -34 -53 -41 -69 -7 -17 -17 -28 -23 -24 -6 3 -7 1 -3 -5 4 -6
2 -21 -4 -33 -47 -87 -61 -330 -26 -444 10 -33 19 -64 20 -70 1 -5 8 -20 15
-33 10 -19 10 -26 -1 -40 -11 -15 -11 -15 3 -4 14 10 19 6 40 -33 13 -25 28
-45 32 -45 5 0 5 -5 2 -10 -3 -6 1 -13 9 -16 9 -3 13 -11 9 -17 -3 -5 -1 -7 4
-4 11 7 70 -62 65 -76 -1 -5 2 -5 8 -2 14 9 52 -24 43 -38 -3 -6 -1 -7 5 -3
13 8 75 -28 64 -38 -4 -4 -2 -6 3 -5 15 4 55 -11 55 -21 0 -5 7 -6 17 -3 12 5
14 3 8 -7 -5 -8 -4 -11 2 -7 5 3 32 -1 59 -9 27 -9 56 -17 64 -19 8 -2 15 -4
15 -5 0 -2 80 -9 130 -10 56 -2 177 20 244 44 24 9 48 13 55 9 6 -3 8 -3 4 2
-9 10 116 86 134 82 7 -2 10 -2 6 0 -14 8 13 45 28 39 8 -3 13 -2 10 3 -7 10
28 44 36 35 3 -3 5 3 5 13 -1 10 4 17 10 16 7 -2 12 0 11 5 -4 14 23 53 33 47
5 -4 9 -3 8 2 -3 18 2 30 24 53 12 14 21 26 20 27 -9 9 -1 23 9 17 6 -4 8 -3
5 3 -3 5 5 45 19 89 32 97 42 242 24 329 -7 33 -13 70 -14 82 0 11 -4 19 -8
17 -4 -3 -10 11 -14 31 -3 19 -10 38 -15 41 -5 3 -7 10 -4 15 4 5 1 9 -5 9 -7
0 -9 7 -6 16 3 8 2 13 -3 10 -8 -5 -55 69 -49 78 2 2 -1 8 -6 13 -6 5 -6 2 -1
-7 8 -13 7 -13 -8 -1 -10 8 -16 16 -14 18 7 7 -116 118 -158 143 -22 13 -46
31 -53 40 -8 8 -11 9 -7 3 4 -9 1 -11 -9 -7 -9 3 -13 11 -9 17 3 6 1 7 -5 3
-6 -4 -19 -2 -29 3 -25 15 -122 42 -160 46 -18 2 -36 5 -40 7 -4 2 -48 1 -98
-3z m174 -166 c139 -38 274 -145 338 -269 113 -215 74 -472 -97 -644 -215
-214 -556 -214 -770 0 -108 108 -160 234 -160 387 0 362 341 622 689 526z"/>
<path d="M5710 3117 c0 -3 12 -12 26 -22 15 -9 23 -12 20 -6 -7 11 -46 35 -46
28z"/>
<path d="M6116 3053 c-6 -14 -5 -15 5 -6 7 7 10 15 7 18 -3 3 -9 -2 -12 -12z"/>
<path d="M4813 3025 c0 -8 4 -12 9 -9 5 3 6 10 3 15 -9 13 -12 11 -12 -6z"/>
<path d="M5880 3010 c0 -5 5 -10 11 -10 5 0 7 5 4 10 -3 6 -8 10 -11 10 -2 0
-4 -4 -4 -10z"/>
<path d="M4725 2949 c-4 -6 -5 -12 -2 -15 2 -3 7 2 10 11 7 17 1 20 -8 4z"/>
<path d="M4456 2933 c-6 -14 -5 -15 5 -6 7 7 10 15 7 18 -3 3 -9 -2 -12 -12z"/>
<path d="M6015 1819 c-4 -6 -5 -12 -2 -15 2 -3 7 2 10 11 7 17 1 20 -8 4z"/>
<path d="M6046 1822 c-3 -5 1 -9 9 -9 8 0 12 4 9 9 -3 4 -7 8 -9 8 -2 0 -6 -4
-9 -8z"/>
<path d="M5953 1731 c0 -11 5 -18 9 -15 4 3 5 11 1 19 -7 21 -12 19 -10 -4z"/>
<path d="M2640 2830 c-27 -27 -26 -71 3 -98 23 -22 25 -22 488 -22 454 0 466
0 487 20 28 26 29 73 2 100 -19 19 -33 20 -490 20 -457 0 -471 -1 -490 -20z"/>
<path d="M2646 2549 c-31 -25 -34 -66 -7 -100 l19 -24 439 -3 c241 -2 453 0
471 3 71 13 97 84 46 124 -26 21 -37 21 -484 21 -447 0 -458 0 -484 -21z"/>
<path d="M2100 2921 c0 -6 4 -13 10 -16 6 -3 7 1 4 9 -7 18 -14 21 -14 7z"/>
</g>
</svg>
