<?xml version="1.0" standalone="no"?>
<!DOCTYPE svg PUBLIC "-//W3C//DTD SVG 20010904//EN"
 "http://www.w3.org/TR/2001/REC-SVG-20010904/DTD/svg10.dtd">
<svg version="1.0" xmlns="http://www.w3.org/2000/svg"
 width="560.000000pt" height="547.000000pt" viewBox="0 0 560.000000 547.000000"
 preserveAspectRatio="xMidYMid meet">

<g transform="translate(0.000000,547.000000) scale(0.100000,-0.100000)"
fill="#999" stroke="none">
<path d="M1926 5190 c-118 -38 -215 -128 -276 -256 l-30 -64 -463 0 c-384 0
-473 -3 -522 -15 -168 -44 -310 -184 -356 -353 -18 -63 -19 -130 -19 -1322 0
-1192 1 -1259 19 -1322 47 -170 187 -309 358 -353 49 -13 236 -15 1348 -15
l1291 0 52 53 52 53 -27 112 -28 112 -1280 0 c-850 0 -1293 4 -1317 10 -44 13
-93 52 -113 91 -22 42 -22 2476 0 2518 20 39 69 78 113 91 23 6 237 10 577 10
l540 0 60 137 c33 75 72 149 87 164 l26 29 610 0 611 0 27 -23 c16 -14 52 -80
90 -163 l63 -139 558 -5 c629 -6 608 -3 661 -83 l27 -41 3 -626 2 -626 68 -14
c37 -7 103 -26 147 -42 44 -16 90 -32 103 -35 l23 -6 -3 694 -3 694 -23 65
c-48 131 -129 229 -239 287 -118 63 -121 63 -633 63 l-466 0 -36 73 c-51 104
-123 178 -216 224 l-76 38 -665 2 c-630 2 -669 1 -725 -17z"/>
<path d="M940 4030 l0 -170 170 0 170 0 -2 168 -3 167 -167 3 -168 2 0 -170z"/>
<path d="M2526 4189 c-553 -64 -947 -538 -905 -1090 18 -244 118 -459 294
-634 346 -347 872 -398 1285 -126 86 56 216 187 277 278 65 98 116 216 146
333 30 122 30 339 -1 464 -105 421 -455 727 -885 775 -105 12 -111 12 -211 0z
m279 -354 c245 -63 439 -268 491 -520 20 -94 14 -238 -12 -325 -42 -143 -148
-288 -268 -368 -91 -61 -162 -89 -279 -110 -285 -51 -583 105 -712 373 -52
108 -68 180 -69 300 0 115 15 177 71 295 113 236 368 388 628 375 50 -2 117
-11 150 -20z"/>
<path d="M4316 2820 c-108 -23 -262 -97 -353 -170 -90 -72 -166 -169 -224
-285 -123 -249 -117 -530 17 -774 l35 -64 -405 -406 -406 -406 120 -120 119
-119 407 405 406 405 82 -42 c137 -71 215 -89 391 -88 137 0 158 3 235 28 246
82 418 232 526 459 54 114 74 211 74 351 0 142 -21 241 -75 355 -172 362 -558
553 -949 471z m356 -348 c83 -30 176 -98 230 -169 201 -267 96 -652 -213 -780
-86 -35 -237 -44 -325 -18 -94 27 -169 73 -234 142 -95 101 -140 213 -140 348
0 140 48 255 149 356 70 70 137 110 224 134 75 21 235 15 309 -13z"/>
</g>
</svg>
